/* XPM */
static char * close_active_xpm[] = {
"38 32 4 1",
" 	c None",
".	c #202021",
"+	c #CDD2D3",
"#	c #575B5E",
"......................................",
"......................................",
"......................................",
"......................................",
"......................................",
"......................................",
"......................................",
"......................................",
"......................................",
"......................................",
".............+#........#+.............",
".............#+#......#+#.............",
"..............#+#....#+#..............",
"...............#+#..#+#...............",
"................#+##+#................",
".................#++#.................",
".................#++#.................",
"................#+##+#................",
"...............#+#..#+#...............",
"..............#+#....#+#..............",
".............#+#......#+#.............",
".............+#........#+.............",
"......................................",
"......................................",
"......................................",
"......................................",
"......................................",
"......................................",
"......................................",
"......................................",
"......................................",
"......................................"};
