/* XPM */
static char * maximize_active_xpm[] = {
"38 32 4 1",
" 	c None",
".	c #202021",
"+	c #E6EAEB",
"#	c #DDE0E1",
"......................................",
"......................................",
"......................................",
"......................................",
"......................................",
"......................................",
"......................................",
"......................................",
"......................................",
"......................................",
".............#++++++++++#.............",
".............+..........+.............",
".............+..........+.............",
".............+..........+.............",
".............+..........+.............",
".............+..........+.............",
".............+..........+.............",
".............+..........+.............",
".............+..........+.............",
".............+..........+.............",
".............+..........+.............",
".............#++++++++++#.............",
"......................................",
"......................................",
"......................................",
"......................................",
"......................................",
"......................................",
"......................................",
"......................................",
"......................................",
"......................................"};
