/* XPM */
static char * maximize_prelight_xpm[] = {
"38 32 6 1",
" 	c None",
".	c #272A2D",
"+	c #E6EAEB",
"#	c #DDE0E2",
"<	c #323539",
">	c #3E4245",
"......................................",
"......................................",
"......................................",
"......................................",
"......................................",
"......................................",
"......................................",
"......................................",
"......................................",
"......................................",
"................#+++++++#.............",
"................+<<<<<<>+.............",
"................+......<+.............",
".............#+++++++#.<+.............",
".............+><<<<<<+.<+.............",
".............+<......+.<+.............",
".............+<......+.<+.............",
".............+<......+.<+.............",
".............+<.....<+++#.............",
".............+<.....<+................",
".............+<.....<+................",
".............#+++++++#................",
"......................................",
"......................................",
"......................................",
"......................................",
"......................................",
"......................................",
"......................................",
"......................................",
"......................................",
"......................................"};
